HIERARCHY
ROOT SpineBase
{
  OFFSET 0.000000 0.000000 0.000000
  CHANNELS 6 Xposition Yposition Zposition Zrotation Xrotation Yrotation
  JOINT SpineMid
  {
    OFFSET 0.000000 34.632451 0.000000
    CHANNELS 3 Zrotation Xrotation Yrotation
    JOINT SpineShoulder
    {
      OFFSET -0.318050 25.591443 -0.697779
      CHANNELS 3 Zrotation Xrotation Yrotation
      JOINT Neck
      {
        OFFSET -0.178308 8.438355 -0.652925
        CHANNELS 3 Zrotation Xrotation Yrotation
        JOINT Head
        {
          OFFSET -4.100620 10.715450 6.076815
          CHANNELS 3 Zrotation Xrotation Yrotation
          End Site
          {
            OFFSET 0 0 0
          }
        }
      }
      JOINT ShoulderLeft
      {
        OFFSET -3.451038 -5.149791 13.786189
        CHANNELS 3 Zrotation Xrotation Yrotation
        JOINT ElbowLeft
        {
          OFFSET -4.133560 -26.548624 3.778821
          CHANNELS 3 Zrotation Xrotation Yrotation
          JOINT WristLeft
          {
            OFFSET -0.104380 -26.636471 -6.970675
            CHANNELS 3 Zrotation Xrotation Yrotation
            JOINT HandLeft
            {
              OFFSET 0.913547 -10.933763 -6.285917
              CHANNELS 3 Zrotation Xrotation Yrotation
              JOINT HandTipLeft
              {
                OFFSET 0.828588 -1.623999 -4.453954
                CHANNELS 3 Zrotation Xrotation Yrotation
                End Site
                {
                  OFFSET 0 0 0
                }
              }
              JOINT ThumbLeft
              {
                OFFSET -1.728548 2.277143 2.167784
                CHANNELS 3 Zrotation Xrotation Yrotation
                End Site
                {
                  OFFSET 0 0 0
                }
              }
            }
          }
        }
      }
      JOINT ShoulderRight
      {
        OFFSET 2.802876 -3.896004 -15.454602
        CHANNELS 3 Zrotation Xrotation Yrotation
        JOINT ElbowRight
        {
          OFFSET 1.493618 -25.543269 -8.924402
          CHANNELS 3 Zrotation Xrotation Yrotation
          JOINT WristRight
          {
            OFFSET -7.653163 -26.415589 -2.716195
            CHANNELS 3 Zrotation Xrotation Yrotation
            JOINT HandRight
            {
              OFFSET -0.483485 -6.879942 0.822056
              CHANNELS 3 Zrotation Xrotation Yrotation
              JOINT HandTipRight
              {
                OFFSET -3.018733 -6.440268 -0.919498
                CHANNELS 3 Zrotation Xrotation Yrotation
                End Site
                {
                  OFFSET 0 0 0
                }
              }
              JOINT ThumbRight
              {
                OFFSET 1.119685 -0.857392 3.039719
                CHANNELS 3 Zrotation Xrotation Yrotation
                End Site
                {
                  OFFSET 0 0 0
                }
              }
            }
          }
        }
      }
    }
  }
  JOINT HipLeft
  {
    OFFSET -2.685539 0.429142 1.843850
    CHANNELS 3 Zrotation Xrotation Yrotation
    JOINT KneeLeft
    {
      OFFSET -3.516007 -28.421361 6.497731
      CHANNELS 3 Zrotation Xrotation Yrotation
      JOINT AnkleLeft
      {
        OFFSET 12.394546 -39.269112 -0.684866
        CHANNELS 3 Zrotation Xrotation Yrotation
        JOINT FootLeft
        {
          OFFSET -4.173907 -7.071559 -1.015331
          CHANNELS 3 Zrotation Xrotation Yrotation
          End Site
          {
            OFFSET 0 0 0
          }
        }
      }
    }
  }
  JOINT HipRight
  {
    OFFSET 0.082254 2.334001 -9.207453
    CHANNELS 3 Zrotation Xrotation Yrotation
    JOINT KneeRight
    {
      OFFSET 2.673999 -30.510034 -6.750129
      CHANNELS 3 Zrotation Xrotation Yrotation
      JOINT AnkleRight
      {
        OFFSET 7.103843 -37.831480 -0.000633
        CHANNELS 3 Zrotation Xrotation Yrotation
        JOINT FootRight
        {
          OFFSET -13.553776 -1.700099 -6.874694
          CHANNELS 3 Zrotation Xrotation Yrotation
          End Site
          {
            OFFSET 0 0 0
          }
        }
      }
    }
  }
}
MOTION
Frames: 8
Frame Time: 0.033333
85.036369 74.375243 242.374997 -0.000000 0.000000 75.939523 -0.000000 -0.000000 -75.939523 -0.000000 0.000000 0.000000 -0.000000 0.000000 0.000000 0.000000 0.000000 0.000000 -0.000000 0.000000 0.000000 -0.000000 0.000000 0.000000 -0.000000 0.000000 0.000000 -0.000000 0.000000 0.000000 0.000000 0.000000 0.000000 0.000000 0.000000 0.000000 -0.000000 0.000000 0.000000 -0.000000 0.000000 0.000000 -0.000000 0.000000 0.000000 -0.000000 0.000000 0.000000 0.000000 0.000000 0.000000 0.000000 0.000000 0.000000 -0.000000 -0.000000 -75.939523 -0.000000 0.000000 0.000000 -0.000000 0.000000 0.000000 0.000000 0.000000 0.000000 -0.000000 -0.000000 -75.939523 -0.000000 0.000000 0.000000 -0.000000 0.000000 0.000000 0.000000 0.000000 0.000000
84.999514 74.351882 242.297986 -0.074028 0.111712 76.266984 -0.090944 -0.098432 -76.266990 -0.000000 0.000000 0.000000 -0.000000 0.000000 0.000000 0.000000 0.000000 0.000000 -0.000000 0.000000 0.000000 -0.000000 0.000000 0.000000 -0.000000 0.000000 0.000000 -0.136691 -1.123325 -0.205252 0.000000 0.000000 0.000000 0.000000 0.000000 0.000000 -0.000000 0.000000 0.000000 -0.000000 0.000000 0.000000 0.552656 -1.484479 0.177308 1.916889 1.974638 -0.827690 0.000000 0.000000 0.000000 0.000000 0.000000 0.000000 -0.090944 -0.098432 -76.266990 -0.000000 0.000000 0.000000 1.121292 -0.682684 0.250291 0.000000 0.000000 0.000000 -0.090944 -0.098432 -76.266990 -0.000000 0.000000 0.000000 5.596728 -2.858800 0.562055 0.000000 0.000000 0.000000
84.953043 74.346647 242.163625 -0.150282 0.267557 76.520722 -0.225157 -0.208508 -76.520780 -0.000000 0.000000 0.000000 -0.000000 0.000000 0.000000 0.000000 0.000000 0.000000 -0.000000 0.000000 0.000000 -0.000000 0.000000 0.000000 -0.000000 0.000000 0.000000 -0.248851 -1.950368 -0.332849 0.000000 0.000000 0.000000 0.000000 0.000000 0.000000 -0.000000 0.000000 0.000000 -0.000000 0.000000 0.000000 0.751251 -2.421746 0.275288 3.765666 3.131093 -1.465967 0.000000 0.000000 0.000000 0.000000 0.000000 0.000000 -0.225157 -0.208508 -76.520780 -0.000000 0.000000 0.000000 1.938918 -1.212682 0.463233 0.000000 0.000000 0.000000 -0.225157 -0.208508 -76.520780 -0.000000 0.000000 0.000000 11.460658 -5.754559 1.464629 0.000000 0.000000 0.000000
84.896956 74.359537 241.971912 -0.228834 0.467683 76.703437 -0.402517 -0.330262 -76.703664 -0.000000 0.000000 0.000000 -0.000000 0.000000 0.000000 0.000000 0.000000 0.000000 -0.000000 0.000000 0.000000 -0.000000 0.000000 0.000000 -0.833571 0.246176 0.501277 0.481100 -2.691733 -0.872361 0.000000 0.000000 0.000000 0.000000 0.000000 0.000000 -0.000000 0.000000 0.000000 0.629956 0.540802 -0.224681 0.025681 -3.445487 0.521598 5.520846 3.596773 -1.865090 0.000000 0.000000 0.000000 0.000000 0.000000 0.000000 -0.402517 -0.330262 -76.703664 -0.000000 0.000000 0.000000 2.439060 -1.585730 0.628668 0.000000 0.000000 0.000000 -1.358647 -0.701450 -76.832816 -0.143568 1.015519 0.121816 16.932722 -8.324766 2.593029 0.000000 0.000000 0.000000
84.831254 74.390552 241.722847 -0.309759 0.712314 76.818080 -0.622912 -0.464033 -76.818677 -0.000000 0.000000 0.000000 -0.000000 0.000000 0.000000 0.000000 0.000000 0.000000 -0.000000 0.000000 0.000000 -0.000000 0.000000 0.000000 -0.971532 0.279343 0.583854 0.570277 -2.855376 -0.900564 0.000000 0.000000 0.000000 0.000000 0.000000 0.000000 -0.000000 0.000000 0.000000 0.765441 0.688264 -0.283085 -0.495819 -3.680935 0.523585 7.178806 3.455671 -1.993654 0.000000 0.000000 0.000000 0.000000 0.000000 0.000000 -0.622912 -0.464033 -76.818677 -0.000000 0.000000 0.000000 2.612883 -1.799345 0.739560 0.000000 0.000000 0.000000 -2.126433 -1.012802 -77.020272 -0.196825 1.588270 0.184945 21.197324 -10.214779 3.676990 0.000000 0.000000 0.000000
84.755936 74.439694 241.416432 -0.393138 1.001748 76.867809 -0.886244 -0.610444 -76.869094 -0.000000 0.000000 0.000000 -0.000000 0.000000 0.000000 0.000000 0.000000 0.000000 -0.000000 0.000000 0.000000 -0.000000 0.000000 0.000000 -1.036794 0.287966 0.622310 0.631287 -2.622410 -0.790249 0.000000 0.000000 0.000000 0.000000 0.000000 0.000000 -0.000000 0.000000 0.000000 0.859993 0.816995 -0.331745 -1.248472 -3.532238 0.445741 8.752235 2.757113 -1.831034 0.000000 0.000000 0.000000 0.000000 0.000000 0.000000 -1.668814 -1.260542 -76.665498 -0.452033 0.911349 -0.212778 2.456387 -1.852351 0.792252 0.000000 0.000000 0.000000 -3.049807 -1.363907 -77.160867 -0.253223 2.276657 0.259524 23.528162 -11.192712 4.394674 0.000000 0.000000 0.000000
84.649070 74.530804 241.017209 -0.500899 1.361197 76.897775 -1.212247 -0.796407 -76.900250 -0.000000 0.000000 0.000000 -0.000000 0.000000 0.000000 0.000000 0.000000 0.000000 -0.000000 0.000000 0.000000 -0.000000 0.000000 0.000000 -0.825742 0.586839 0.526758 0.441931 -1.623501 -0.027352 0.000000 0.000000 0.000000 0.000000 0.000000 0.000000 -0.000000 0.000000 0.000000 0.908426 0.997786 -0.390955 -2.925257 -2.694281 0.185254 11.641126 0.499317 -0.944180 0.000000 0.000000 0.000000 0.000000 0.000000 0.000000 -2.453294 -1.808293 -76.590204 -0.696306 1.441713 -0.329494 1.920434 -1.741278 0.790811 0.000000 0.000000 0.000000 -4.253585 -1.834364 -77.323997 -0.343613 3.194373 0.363493 25.199250 -11.839368 5.151636 0.000000 0.000000 0.000000
84.542511 74.624707 240.520207 -0.608871 1.835795 76.896632 -0.799925 -0.424036 -76.889122 0.377158 -0.960575 0.001507 -0.000000 0.000000 0.000000 0.000000 0.000000 0.000000 -0.000000 0.000000 0.000000 -0.000000 0.000000 0.000000 -0.736103 0.661365 0.481364 0.448459 0.434496 0.853047 0.000000 0.000000 0.000000 0.000000 0.000000 0.000000 -0.000000 0.000000 0.000000 0.895799 1.096061 -0.418778 -3.931948 -2.101497 0.021850 12.132932 -1.177776 0.011946 0.000000 0.000000 0.000000 0.000000 0.000000 0.000000 -3.537115 -2.433503 -76.472827 -0.942877 2.167449 -0.467440 1.110557 -1.496329 0.743926 0.000000 0.000000 0.000000 -5.753054 -2.366314 -77.490982 -0.432333 4.298215 0.484893 23.826749 -11.242874 5.053049 0.000000 0.000000 0.000000
